M48
; DRILL file KiCad 10.0.5 date 2026-08-20T10:37:47
; FORMAT={-:-/ absolute / metric / decimal}
; #@! TF.CreationDate,2026-08-20T10:37:47-03:00
; #@! TF.GenerationSoftware,Kicad,Pcbnew,10.0.5
; #@! TF.FileFunction,Plated,1,2,PTH
FMAT,2
METRIC
; #@! TA.AperFunction,Plated,PTH,ComponentDrill
T1C0.200
; #@! TA.AperFunction,Plated,PTH,ViaDrill
T2C0.300
; #@! TA.AperFunction,Plated,PTH,ComponentDrill
T3C0.600
; #@! TA.AperFunction,Plated,PTH,ComponentDrill
T4C0.940
%
G90
G05
T1
X203.075Y-96.15
X203.075Y-97.25
X203.625Y-95.6
X203.625Y-96.7
X203.625Y-97.8
X204.175Y-96.15
X204.175Y-97.25
X204.725Y-95.6
X204.725Y-96.7
X204.725Y-97.8
X205.275Y-96.15
X205.275Y-97.25
X248.45Y-90.4
X249.55Y-90.4
T2
X188.744Y-120.66
X190.275Y-95.0
X190.475Y-124.0
X190.675Y-115.2
X190.834Y-116.203
X192.215Y-112.683
X192.275Y-113.6
X192.275Y-120.6
X192.675Y-102.4
X193.675Y-116.8
X194.275Y-123.6
X194.836Y-118.561
X195.275Y-126.0
X195.866Y-120.058
X196.075Y-90.4
X196.187Y-103.112
X197.075Y-103.2
X197.494Y-110.8
X198.075Y-103.2
X198.075Y-118.8
X198.075Y-124.6
X206.475Y-118.6
X206.99Y-124.6
X209.075Y-117.4
X211.59Y-120.715
X211.59Y-123.2
X212.269Y-118.351
X213.875Y-112.2
X214.075Y-116.6
X214.075Y-121.8
X215.6Y-95.6
X215.6Y-101.6
X215.675Y-90.4
X216.59Y-124.71
X217.075Y-120.6
X217.575Y-114.5
X218.675Y-108.8
X218.675Y-110.6
X220.0Y-109.6
X221.0Y-117.4
X221.0Y-119.2
X221.0Y-122.0
X221.0Y-123.8
X221.275Y-108.8
X221.275Y-110.6
X222.0Y-118.2
X222.0Y-122.8
X222.275Y-113.6
X222.875Y-108.8
X223.0Y-117.4
X223.0Y-119.2
X223.0Y-122.0
X223.0Y-123.8
X224.0Y-100.6
X224.4Y-125.8
X226.15Y-117.173
X226.6Y-123.0
X226.8Y-125.8
X228.6Y-115.0
X228.8Y-114.2
X228.875Y-111.6
X229.004Y-121.801
X229.01Y-95.6
X231.6Y-118.6
X232.2Y-115.0
X233.6Y-118.2
X234.0Y-121.0
X236.2Y-114.8
X236.4Y-122.6
X236.475Y-94.6
X237.2Y-131.0
X238.0Y-115.8
X238.0Y-115.8
X246.965Y-93.68
X246.965Y-96.48
X247.5Y-90.6
X249.529Y-92.52
X249.6Y-97.6
T4
X246.52Y-111.4
X246.52Y-113.432
X246.52Y-115.464
X246.52Y-123.465
X246.52Y-125.497
X246.52Y-127.529
X248.552Y-112.416
X248.552Y-114.448
X248.552Y-116.48
X248.552Y-124.481
X248.552Y-126.513
X248.552Y-128.545
T3
G00X252.235Y-90.88
M15
G01X253.335Y-90.88
M16
G05
G00X252.235Y-99.52
M15
G01X253.335Y-99.52
M16
G05
G00X256.565Y-90.88
M15
G01X257.365Y-90.88
M16
G05
G00X256.565Y-99.52
M15
G01X257.365Y-99.52
M16
G05
M30
