%TF.GenerationSoftware,KiCad,Pcbnew,10.0.5*%
%TF.CreationDate,2026-08-23T18:57:02-03:00*%
%TF.ProjectId,interhardware,696e7465-7268-4617-9264-776172652e6b,rev?*%
%TF.SameCoordinates,Original*%
%TF.FileFunction,Soldermask,Top*%
%TF.FilePolarity,Negative*%
%FSLAX46Y46*%
G04 Gerber Fmt 4.6, Leading zero omitted, Abs format (unit mm)*
G04 Created by KiCad (PCBNEW 10.0.5) date 2026-08-23 18:57:02*
%MOMM*%
%LPD*%
G01*
G04 APERTURE LIST*
G04 Aperture macros list*
%AMRoundRect*
0 Rectangle with rounded corners*
0 $1 Rounding radius*
0 $2 $3 $4 $5 $6 $7 $8 $9 X,Y pos of 4 corners*
0 Add a 4 corners polygon primitive as box body*
4,1,4,$2,$3,$4,$5,$6,$7,$8,$9,$2,$3,0*
0 Add four circle primitives for the rounded corners*
1,1,$1+$1,$2,$3*
1,1,$1+$1,$4,$5*
1,1,$1+$1,$6,$7*
1,1,$1+$1,$8,$9*
0 Add four rect primitives between the rounded corners*
20,1,$1+$1,$2,$3,$4,$5,0*
20,1,$1+$1,$4,$5,$6,$7,0*
20,1,$1+$1,$6,$7,$8,$9,0*
20,1,$1+$1,$8,$9,$2,$3,0*%
G04 Aperture macros list end*
%ADD10RoundRect,0.200000X-0.200000X-0.275000X0.200000X-0.275000X0.200000X0.275000X-0.200000X0.275000X0*%
%ADD11R,1.700000X1.700000*%
%ADD12RoundRect,0.225000X-0.250000X0.225000X-0.250000X-0.225000X0.250000X-0.225000X0.250000X0.225000X0*%
%ADD13RoundRect,0.200000X-0.275000X0.200000X-0.275000X-0.200000X0.275000X-0.200000X0.275000X0.200000X0*%
%ADD14RoundRect,0.200000X0.200000X0.275000X-0.200000X0.275000X-0.200000X-0.275000X0.200000X-0.275000X0*%
%ADD15C,3.500000*%
%ADD16C,1.652000*%
%ADD17RoundRect,0.218750X-0.256250X0.218750X-0.256250X-0.218750X0.256250X-0.218750X0.256250X0.218750X0*%
%ADD18RoundRect,0.250000X-0.312500X-0.625000X0.312500X-0.625000X0.312500X0.625000X-0.312500X0.625000X0*%
%ADD19RoundRect,0.249999X-0.900001X0.525001X-0.900001X-0.525001X0.900001X-0.525001X0.900001X0.525001X0*%
%ADD20RoundRect,0.102000X1.700000X-0.500000X1.700000X0.500000X-1.700000X0.500000X-1.700000X-0.500000X0*%
%ADD21RoundRect,0.200000X0.275000X-0.200000X0.275000X0.200000X-0.275000X0.200000X-0.275000X-0.200000X0*%
%ADD22RoundRect,0.225000X-0.225000X-0.250000X0.225000X-0.250000X0.225000X0.250000X-0.225000X0.250000X0*%
%ADD23RoundRect,0.225000X0.250000X-0.225000X0.250000X0.225000X-0.250000X0.225000X-0.250000X-0.225000X0*%
%ADD24RoundRect,0.150000X-0.587500X-0.150000X0.587500X-0.150000X0.587500X0.150000X-0.587500X0.150000X0*%
%ADD25R,1.500000X0.900000*%
%ADD26C,0.600000*%
%ADD27R,2.900000X2.900000*%
%ADD28RoundRect,0.250000X-0.625000X0.312500X-0.625000X-0.312500X0.625000X-0.312500X0.625000X0.312500X0*%
%ADD29R,0.900000X1.700000*%
%ADD30RoundRect,0.062500X0.062500X-0.237500X0.062500X0.237500X-0.062500X0.237500X-0.062500X-0.237500X0*%
%ADD31R,1.600000X0.900000*%
%ADD32RoundRect,0.200000X-0.562500X-0.200000X0.562500X-0.200000X0.562500X0.200000X-0.562500X0.200000X0*%
%ADD33RoundRect,0.250000X-0.900000X1.000000X-0.900000X-1.000000X0.900000X-1.000000X0.900000X1.000000X0*%
%ADD34C,0.650000*%
%ADD35RoundRect,0.150000X0.425000X-0.150000X0.425000X0.150000X-0.425000X0.150000X-0.425000X-0.150000X0*%
%ADD36RoundRect,0.075000X0.500000X-0.075000X0.500000X0.075000X-0.500000X0.075000X-0.500000X-0.075000X0*%
%ADD37O,2.100000X1.000000*%
%ADD38O,1.800000X1.000000*%
%ADD39RoundRect,0.250000X-0.550000X1.050000X-0.550000X-1.050000X0.550000X-1.050000X0.550000X1.050000X0*%
%ADD40RoundRect,0.250000X0.250000X0.475000X-0.250000X0.475000X-0.250000X-0.475000X0.250000X-0.475000X0*%
%ADD41RoundRect,0.225000X-0.225000X-0.375000X0.225000X-0.375000X0.225000X0.375000X-0.225000X0.375000X0*%
%ADD42RoundRect,0.250000X0.312500X0.625000X-0.312500X0.625000X-0.312500X-0.625000X0.312500X-0.625000X0*%
%ADD43RoundRect,0.249999X-0.525001X-0.900001X0.525001X-0.900001X0.525001X0.900001X-0.525001X0.900001X0*%
%ADD44RoundRect,0.225000X0.225000X0.250000X-0.225000X0.250000X-0.225000X-0.250000X0.225000X-0.250000X0*%
%ADD45RoundRect,0.150000X0.150000X-0.587500X0.150000X0.587500X-0.150000X0.587500X-0.150000X-0.587500X0*%
%ADD46RoundRect,0.218750X-0.218750X-0.256250X0.218750X-0.256250X0.218750X0.256250X-0.218750X0.256250X0*%
%ADD47RoundRect,0.250000X0.650000X-0.325000X0.650000X0.325000X-0.650000X0.325000X-0.650000X-0.325000X0*%
%ADD48RoundRect,0.077500X-0.352500X-0.082500X0.352500X-0.082500X0.352500X0.082500X-0.352500X0.082500X0*%
%ADD49RoundRect,0.077500X-0.082500X-0.352500X0.082500X-0.352500X0.082500X0.352500X-0.082500X0.352500X0*%
%ADD50RoundRect,0.050000X-0.950000X-0.950000X0.950000X-0.950000X0.950000X0.950000X-0.950000X0.950000X0*%
%ADD51RoundRect,0.250000X0.325000X0.650000X-0.325000X0.650000X-0.325000X-0.650000X0.325000X-0.650000X0*%
%ADD52R,0.700000X0.700000*%
%ADD53RoundRect,0.250000X-0.475000X0.250000X-0.475000X-0.250000X0.475000X-0.250000X0.475000X0.250000X0*%
%ADD54RoundRect,0.111100X-0.400900X-0.120900X0.400900X-0.120900X0.400900X0.120900X-0.400900X0.120900X0*%
%ADD55RoundRect,0.111100X-0.120900X-0.400900X0.120900X-0.400900X0.120900X0.400900X-0.120900X0.400900X0*%
%ADD56RoundRect,0.102000X-1.325000X-1.340000X1.325000X-1.340000X1.325000X1.340000X-1.325000X1.340000X0*%
G04 APERTURE END LIST*
D10*
%TO.C,R58*%
X191080000Y-98355000D03*
X192730000Y-98355000D03*
%TD*%
D11*
%TO.C,AOUT1*%
X190400000Y-128200000D03*
%TD*%
D12*
%TO.C,C52*%
X191100000Y-93125000D03*
X191100000Y-91575000D03*
%TD*%
D13*
%TO.C,R55*%
X192600000Y-91550000D03*
X192600000Y-93200000D03*
%TD*%
D10*
%TO.C,R57*%
X191250000Y-101200000D03*
X189600000Y-101200000D03*
%TD*%
D11*
%TO.C,EN1*%
X223000000Y-88000000D03*
%TD*%
%TO.C,GND1*%
X226600000Y-88000000D03*
%TD*%
%TO.C,BOOT1*%
X191200000Y-106200000D03*
%TD*%
D14*
%TO.C,R56*%
X215600000Y-93600000D03*
X213950000Y-93600000D03*
%TD*%
D15*
%TO.C,J1*%
X251600000Y-130780200D03*
X251600000Y-109190200D03*
D16*
X246520000Y-123465000D03*
X246520000Y-111400000D03*
X248552000Y-124481000D03*
X248552000Y-112416000D03*
X246520000Y-125497000D03*
X246520000Y-113432000D03*
X248552000Y-126513000D03*
X248552000Y-114448000D03*
X246520000Y-127529000D03*
X246520000Y-115464000D03*
X248552000Y-128545000D03*
X248552000Y-116480000D03*
%TD*%
D17*
%TO.C,FB2*%
X238000000Y-113000000D03*
X238000000Y-114575000D03*
%TD*%
D18*
%TO.C,R33*%
X212790000Y-126200000D03*
X215715000Y-126200000D03*
%TD*%
D14*
%TO.C,R53*%
X215625000Y-92100000D03*
X213975000Y-92100000D03*
%TD*%
D13*
%TO.C,R6*%
X229950000Y-110350000D03*
X229950000Y-112000000D03*
%TD*%
D12*
%TO.C,C6*%
X215390000Y-122650000D03*
X215390000Y-124200000D03*
%TD*%
D19*
%TO.C,C8*%
X240200000Y-132500000D03*
X240200000Y-136650000D03*
%TD*%
D20*
%TO.C,L1*%
X247400000Y-87000000D03*
X247400000Y-84900000D03*
%TD*%
D21*
%TO.C,R5*%
X225350000Y-117900000D03*
X225350000Y-116250000D03*
%TD*%
D14*
%TO.C,R9*%
X207925000Y-120000000D03*
X206275000Y-120000000D03*
%TD*%
D10*
%TO.C,R12*%
X196790000Y-120200000D03*
X198440000Y-120200000D03*
%TD*%
D22*
%TO.C,C_LED1*%
X234425000Y-99200000D03*
X235975000Y-99200000D03*
%TD*%
D23*
%TO.C,C10*%
X231750000Y-112000000D03*
X231750000Y-110450000D03*
%TD*%
D24*
%TO.C,Q2*%
X233750000Y-110300000D03*
X233750000Y-112200000D03*
X235625000Y-111250000D03*
%TD*%
D25*
%TO.C,U3*%
X194465000Y-90500000D03*
X194465000Y-92000000D03*
X194465000Y-93500000D03*
X194465000Y-95000000D03*
X194465000Y-96500000D03*
X194465000Y-98000000D03*
X194465000Y-99500000D03*
X194465000Y-101000000D03*
X194465000Y-102500000D03*
X211965000Y-102500000D03*
X211965000Y-101000000D03*
X211965000Y-99500000D03*
X211965000Y-98000000D03*
X211965000Y-96500000D03*
X211965000Y-95000000D03*
X211965000Y-93500000D03*
X211965000Y-92000000D03*
X211965000Y-90500000D03*
D26*
X203075000Y-96150000D03*
X203075000Y-97250000D03*
X203625000Y-95600000D03*
X203625000Y-96700000D03*
X203625000Y-97800000D03*
X204175000Y-96150000D03*
D27*
X204175000Y-96700000D03*
D26*
X204175000Y-97250000D03*
X204725000Y-95600000D03*
X204725000Y-96700000D03*
X204725000Y-97800000D03*
X205275000Y-96150000D03*
X205275000Y-97250000D03*
%TD*%
D28*
%TO.C,R32*%
X217850000Y-126025000D03*
X217850000Y-128950000D03*
%TD*%
D24*
%TO.C,Q1*%
X227400000Y-115000000D03*
X227400000Y-116900000D03*
X229275000Y-115950000D03*
%TD*%
D28*
%TO.C,R1*%
X212275000Y-112675000D03*
X212275000Y-115600000D03*
%TD*%
D14*
%TO.C,R52*%
X215325000Y-102600000D03*
X213675000Y-102600000D03*
%TD*%
D29*
%TO.C,SW1*%
X230425000Y-94600000D03*
X233825000Y-94600000D03*
%TD*%
D30*
%TO.C,U4*%
X248250000Y-91350000D03*
X248750000Y-91350000D03*
X249250000Y-91350000D03*
X249750000Y-91350000D03*
X249750000Y-89450000D03*
X249250000Y-89450000D03*
X248750000Y-89450000D03*
X248250000Y-89450000D03*
D31*
X249000000Y-90400000D03*
%TD*%
D32*
%TO.C,D1*%
X230400000Y-117400000D03*
X230400000Y-121400000D03*
X236275000Y-121400000D03*
X236275000Y-117400000D03*
%TD*%
D33*
%TO.C,RV1*%
X239800000Y-117700000D03*
X239800000Y-122000000D03*
%TD*%
D24*
%TO.C,Q5*%
X217852500Y-117750000D03*
X217852500Y-119650000D03*
X219727500Y-118700000D03*
%TD*%
D34*
%TO.C,J2*%
X253285000Y-98090000D03*
X253285000Y-92310000D03*
D35*
X252210000Y-98400000D03*
X252210000Y-97600000D03*
D36*
X252210000Y-96450000D03*
X252210000Y-95450000D03*
X252210000Y-94950000D03*
X252210000Y-93950000D03*
D35*
X252210000Y-92800000D03*
X252210000Y-92000000D03*
X252210000Y-92000000D03*
X252210000Y-92800000D03*
D36*
X252210000Y-93450000D03*
X252210000Y-94450000D03*
X252210000Y-95950000D03*
X252210000Y-96950000D03*
D35*
X252210000Y-97600000D03*
X252210000Y-98400000D03*
D37*
X252785000Y-99520000D03*
D38*
X256965000Y-99520000D03*
D37*
X252785000Y-90880000D03*
D38*
X256965000Y-90880000D03*
%TD*%
D18*
%TO.C,R30*%
X212875000Y-128600000D03*
X215800000Y-128600000D03*
%TD*%
D39*
%TO.C,C4*%
X207075000Y-112400000D03*
X207075000Y-116000000D03*
%TD*%
D40*
%TO.C,C75*%
X246600000Y-92400000D03*
X244700000Y-92400000D03*
%TD*%
D24*
%TO.C,Q4*%
X217800000Y-121650000D03*
X217800000Y-123550000D03*
X219675000Y-122600000D03*
%TD*%
D41*
%TO.C,Z1*%
X224250000Y-111600000D03*
X227550000Y-111600000D03*
%TD*%
D10*
%TO.C,R75*%
X245350000Y-88600000D03*
X247000000Y-88600000D03*
%TD*%
%TO.C,R_BO1*%
X227360000Y-94775000D03*
X229010000Y-94775000D03*
%TD*%
D21*
%TO.C,R_LED1*%
X234475000Y-102450000D03*
X234475000Y-100800000D03*
%TD*%
D42*
%TO.C,R11*%
X228325000Y-120200000D03*
X225400000Y-120200000D03*
%TD*%
D43*
%TO.C,C1*%
X200240000Y-120150000D03*
X204390000Y-120150000D03*
%TD*%
D17*
%TO.C,FB1*%
X238000000Y-124500000D03*
X238000000Y-126075000D03*
%TD*%
D12*
%TO.C,C5*%
X208390000Y-122650000D03*
X208390000Y-124200000D03*
%TD*%
D18*
%TO.C,R10*%
X224275000Y-108800000D03*
X227200000Y-108800000D03*
%TD*%
D44*
%TO.C,C51*%
X193225000Y-124000000D03*
X191675000Y-124000000D03*
%TD*%
D28*
%TO.C,R31*%
X210675000Y-125000000D03*
X210675000Y-127925000D03*
%TD*%
D18*
%TO.C,R4*%
X225400000Y-123200000D03*
X228325000Y-123200000D03*
%TD*%
D14*
%TO.C,R73*%
X245610000Y-95750000D03*
X243960000Y-95750000D03*
%TD*%
D45*
%TO.C,Q3*%
X218990000Y-113600000D03*
X220890000Y-113600000D03*
X219940000Y-111725000D03*
%TD*%
D46*
%TO.C,FB204*%
X239925000Y-126000000D03*
X241500000Y-126000000D03*
%TD*%
D19*
%TO.C,C9*%
X237200000Y-132500000D03*
X237200000Y-136650000D03*
%TD*%
D46*
%TO.C,FB203*%
X239925000Y-114500000D03*
X241500000Y-114500000D03*
%TD*%
D47*
%TO.C,C31*%
X220250000Y-128950000D03*
X220250000Y-126000000D03*
%TD*%
D48*
%TO.C,U1*%
X210105000Y-119915000D03*
X210105000Y-120315000D03*
X210105000Y-120715000D03*
X210105000Y-121115000D03*
X210105000Y-121515000D03*
D49*
X210790000Y-122200000D03*
X211190000Y-122200000D03*
X211590000Y-122200000D03*
X211990000Y-122200000D03*
X212390000Y-122200000D03*
D48*
X213075000Y-121515000D03*
X213075000Y-121115000D03*
X213075000Y-120715000D03*
X213075000Y-120315000D03*
X213075000Y-119915000D03*
D49*
X212390000Y-119230000D03*
X211990000Y-119230000D03*
X211590000Y-119230000D03*
X211190000Y-119230000D03*
X210790000Y-119230000D03*
D50*
X211590000Y-120715000D03*
%TD*%
D14*
%TO.C,R74*%
X245610000Y-94150000D03*
X243960000Y-94150000D03*
%TD*%
D51*
%TO.C,C3*%
X228550000Y-125800000D03*
X225600000Y-125800000D03*
%TD*%
D52*
%TO.C,D2*%
X231210000Y-99285000D03*
X231210000Y-100385000D03*
X233040000Y-100385000D03*
X233040000Y-99285000D03*
%TD*%
D43*
%TO.C,C2*%
X200240000Y-123000000D03*
X204390000Y-123000000D03*
%TD*%
D14*
%TO.C,R71*%
X249610000Y-96550000D03*
X247960000Y-96550000D03*
%TD*%
%TO.C,R72*%
X249810000Y-93550000D03*
X248160000Y-93550000D03*
%TD*%
D42*
%TO.C,R3*%
X233325000Y-114200000D03*
X230400000Y-114200000D03*
%TD*%
D12*
%TO.C,C7*%
X210275000Y-115200000D03*
X210275000Y-116750000D03*
%TD*%
D10*
%TO.C,R13*%
X196750000Y-123000000D03*
X198400000Y-123000000D03*
%TD*%
D53*
%TO.C,C76*%
X243600000Y-88700000D03*
X243600000Y-90600000D03*
%TD*%
D12*
%TO.C,C50*%
X196875000Y-117200000D03*
X196875000Y-118750000D03*
%TD*%
D54*
%TO.C,U2*%
X190320000Y-119350000D03*
X190320000Y-119850000D03*
X190320000Y-120350000D03*
X190320000Y-120850000D03*
X190320000Y-121350000D03*
X190320000Y-121850000D03*
D55*
X191025000Y-122555000D03*
X191525000Y-122555000D03*
X192025000Y-122555000D03*
X192525000Y-122555000D03*
X193025000Y-122555000D03*
X193525000Y-122555000D03*
D54*
X194230000Y-121850000D03*
X194230000Y-121350000D03*
X194230000Y-120850000D03*
X194230000Y-120350000D03*
X194230000Y-119850000D03*
X194230000Y-119350000D03*
D55*
X193525000Y-118645000D03*
X193025000Y-118645000D03*
X192525000Y-118645000D03*
X192025000Y-118645000D03*
X191525000Y-118645000D03*
X191025000Y-118645000D03*
D56*
X192275000Y-120600000D03*
%TD*%
D13*
%TO.C,R54*%
X195800000Y-124800000D03*
X195800000Y-126450000D03*
%TD*%
D10*
%TO.C,R2*%
X214275000Y-117800000D03*
X215925000Y-117800000D03*
%TD*%
D51*
%TO.C,C30*%
X215825000Y-131000000D03*
X212875000Y-131000000D03*
%TD*%
M02*
