%TF.GenerationSoftware,KiCad,Pcbnew,10.0.5*%
%TF.CreationDate,2026-08-20T10:37:49-03:00*%
%TF.ProjectId,interhardware,696e7465-7268-4617-9264-776172652e6b,rev?*%
%TF.SameCoordinates,Original*%
%TF.FileFunction,Copper,L2,Bot*%
%TF.FilePolarity,Positive*%
%FSLAX46Y46*%
G04 Gerber Fmt 4.6, Leading zero omitted, Abs format (unit mm)*
G04 Created by KiCad (PCBNEW 10.0.5) date 2026-08-20 10:37:49*
%MOMM*%
%LPD*%
G01*
G04 APERTURE LIST*
%TA.AperFunction,ComponentPad*%
%ADD10C,1.448000*%
%TD*%
%TA.AperFunction,HeatsinkPad*%
%ADD11C,0.600000*%
%TD*%
%TA.AperFunction,HeatsinkPad*%
%ADD12C,0.500000*%
%TD*%
%TA.AperFunction,HeatsinkPad*%
%ADD13R,1.600000X0.500000*%
%TD*%
%TA.AperFunction,ComponentPad*%
%ADD14O,2.100000X1.000000*%
%TD*%
%TA.AperFunction,ComponentPad*%
%ADD15O,1.800000X1.000000*%
%TD*%
%TA.AperFunction,ViaPad*%
%ADD16C,0.600000*%
%TD*%
%TA.AperFunction,Conductor*%
%ADD17C,0.508000*%
%TD*%
%TA.AperFunction,Conductor*%
%ADD18C,0.381000*%
%TD*%
G04 APERTURE END LIST*
D10*
%TO.P,J1,1_1,1_1_1_1*%
%TO.N,unconnected-(J1-Pad1_1)*%
X246520000Y-123465000D03*
%TO.P,J1,1_2,1_2_1_2*%
%TO.N,unconnected-(J1-Pad1_2)*%
X246520000Y-111400000D03*
%TO.P,J1,2_1,2_1_2_1*%
%TO.N,unconnected-(J1-Pad2_1)*%
X248552000Y-124481000D03*
%TO.P,J1,2_2,2_2_2_2*%
%TO.N,unconnected-(J1-Pad2_2)*%
X248552000Y-112416000D03*
%TO.P,J1,3_1,3_1_3_1*%
%TO.N,Net-(RV1-K)*%
X246520000Y-125497000D03*
%TO.P,J1,3_2,3_2_3_2*%
X246520000Y-113432000D03*
%TO.P,J1,4_1,4_1_4_1*%
%TO.N,Net-(RV1-A)*%
X248552000Y-126513000D03*
%TO.P,J1,4_2,4_2_4_2*%
X248552000Y-114448000D03*
%TO.P,J1,5_1,5_1_5_1*%
%TO.N,unconnected-(J1-Pad5_1)*%
X246520000Y-127529000D03*
%TO.P,J1,5_2,5_2_5_2*%
%TO.N,unconnected-(J1-Pad5_2)*%
X246520000Y-115464000D03*
%TO.P,J1,6_1,6_1_6_1*%
%TO.N,unconnected-(J1-Pad6_1)*%
X248552000Y-128545000D03*
%TO.P,J1,6_2,6_2_6_2*%
%TO.N,unconnected-(J1-Pad6_2)*%
X248552000Y-116480000D03*
%TD*%
D11*
%TO.P,U3,19,GND_19*%
%TO.N,GND*%
X203075000Y-96150000D03*
X203075000Y-97250000D03*
X203625000Y-95600000D03*
X203625000Y-96700000D03*
X203625000Y-97800000D03*
X204175000Y-96150000D03*
X204175000Y-97250000D03*
X204725000Y-95600000D03*
X204725000Y-96700000D03*
X204725000Y-97800000D03*
X205275000Y-96150000D03*
X205275000Y-97250000D03*
%TD*%
D12*
%TO.P,U4,9,PAD_9*%
%TO.N,GND*%
X248450000Y-90400000D03*
D13*
X249000000Y-90400000D03*
D12*
X249550000Y-90400000D03*
%TD*%
D14*
%TO.P,J2,SH,SHIELD_SH*%
%TO.N,GND*%
X252785000Y-99520000D03*
D15*
X256965000Y-99520000D03*
D14*
X252785000Y-90880000D03*
D15*
X256965000Y-90880000D03*
%TD*%
D16*
%TO.N,Net-(C9-Pad1)*%
X238000000Y-115800000D03*
%TO.N,GND*%
X247500000Y-90600000D03*
X192275000Y-120600000D03*
X192675000Y-102400000D03*
X190275000Y-95000000D03*
X246965000Y-96480000D03*
X194835751Y-118560751D03*
X190475000Y-124000000D03*
X236475000Y-94600000D03*
X246965000Y-93680000D03*
X197493600Y-110800000D03*
%TO.N,Net-(C9-Pad1)*%
X237200000Y-131000000D03*
X238000000Y-115800000D03*
%TO.N,+3.3V*%
X215600000Y-95600000D03*
X215600000Y-101600000D03*
X198075000Y-118800000D03*
X198075000Y-124600000D03*
X196075000Y-90400000D03*
X215675000Y-90400000D03*
%TO.N,Net-(Q2-B)*%
X218675000Y-110600000D03*
X220000000Y-109600000D03*
X218675000Y-108800000D03*
X221275000Y-110600000D03*
X221275000Y-108800000D03*
%TO.N,Net-(D1-+)*%
X231600000Y-118600000D03*
X234000000Y-121000000D03*
%TO.N,/IGND*%
X212268508Y-118351318D03*
X211590000Y-123200000D03*
X206475000Y-118600000D03*
X211590000Y-120715000D03*
X224400000Y-125800000D03*
X216590000Y-124710000D03*
X226800000Y-125800000D03*
X236400000Y-122600000D03*
X209075000Y-117400000D03*
X206990000Y-124600000D03*
X214075000Y-121800000D03*
%TO.N,Net-(Q1-E)*%
X223000000Y-122000000D03*
X221000000Y-122000000D03*
X221000000Y-123800000D03*
X222000000Y-122800000D03*
X223000000Y-123800000D03*
%TO.N,Net-(Q1-B)*%
X229003957Y-121800733D03*
X226150016Y-117173468D03*
X228600000Y-115000000D03*
X232200000Y-115000000D03*
%TO.N,Net-(D2-VDD)*%
X249600000Y-97600000D03*
X249528616Y-92520000D03*
%TO.N,/RESET*%
X195275000Y-126000000D03*
X198075000Y-103200000D03*
%TO.N,/SCLK*%
X193675000Y-116800000D03*
X197075000Y-103200000D03*
%TO.N,/SDI*%
X196186741Y-103111744D03*
X190834500Y-116203066D03*
%TO.N,/CS*%
X192275000Y-113600000D03*
X190675000Y-115200000D03*
%TO.N,Net-(U3-IO20{slash}RXD)*%
X224000000Y-100600000D03*
X229010000Y-95600000D03*
%TO.N,/DTX*%
X192215500Y-112682986D03*
X188744156Y-120659501D03*
%TO.N,Net-(C4-Pad1)*%
X222875000Y-108800000D03*
X213875000Y-112200000D03*
%TO.N,Net-(Q5-C)*%
X223000000Y-119200000D03*
X221000000Y-119200000D03*
X222000000Y-118200000D03*
X221000000Y-117400000D03*
X223000000Y-117400000D03*
%TO.N,/QB*%
X217075000Y-120600000D03*
X226600000Y-123000000D03*
%TO.N,/QE*%
X214075000Y-116600000D03*
X228875000Y-111600000D03*
X222275000Y-113600000D03*
%TO.N,Net-(U2-VA)*%
X195865806Y-120057876D03*
X194275000Y-123600000D03*
%TO.N,Net-(Q3-B)*%
X217575000Y-114500000D03*
X228800000Y-114200000D03*
%TO.N,Net-(D1--)*%
X236200000Y-114800000D03*
X233600000Y-118200000D03*
%TD*%
%TO.N,GND*%
D17*
X192275000Y-120600000D02*
X192275000Y-122200000D01*
X236475000Y-94600000D02*
X246600000Y-94600000D01*
X207800000Y-94600000D02*
X206400000Y-96000000D01*
X194835751Y-118560751D02*
X194314249Y-118560751D01*
X199400000Y-98800000D02*
X202000000Y-98800000D01*
X192675000Y-102400000D02*
X198875000Y-96200000D01*
X197493600Y-109471900D02*
X199400000Y-107565500D01*
X197493600Y-110800000D02*
X197493600Y-109471900D01*
X198875000Y-96200000D02*
X202200000Y-96200000D01*
X236475000Y-94600000D02*
X207800000Y-94600000D01*
X194314249Y-118560751D02*
X192275000Y-120600000D01*
X199400000Y-107565500D02*
X199400000Y-98800000D01*
X190275000Y-95000000D02*
X202200000Y-95000000D01*
X192275000Y-122200000D02*
X190475000Y-124000000D01*
%TO.N,+3.3V*%
X198075000Y-118800000D02*
X198075000Y-124600000D01*
X196075000Y-90400000D02*
X215675000Y-90400000D01*
X215600000Y-95600000D02*
X215600000Y-101600000D01*
%TO.N,Net-(D1-+)*%
D18*
X231600000Y-118600000D02*
X234000000Y-121000000D01*
%TO.N,/IGND*%
D17*
X230000000Y-122600000D02*
X236400000Y-122600000D01*
X226800000Y-125800000D02*
X230000000Y-122600000D01*
%TO.N,Net-(Q1-B)*%
D18*
X229003957Y-121800733D02*
X226150016Y-118946792D01*
X226150016Y-118946792D02*
X226150016Y-117173468D01*
X228600000Y-115000000D02*
X232200000Y-115000000D01*
%TO.N,Net-(D2-VDD)*%
D17*
X249528616Y-97528616D02*
X249600000Y-97600000D01*
X249528616Y-92520000D02*
X249528616Y-97528616D01*
%TO.N,/RESET*%
D18*
X195275000Y-125273485D02*
X195275000Y-126000000D01*
X198075000Y-103200000D02*
X196675000Y-104600000D01*
X196675000Y-104600000D02*
X196675000Y-123873485D01*
X196675000Y-123873485D02*
X195275000Y-125273485D01*
%TO.N,/SCLK*%
X197075000Y-103200000D02*
X195856000Y-104419000D01*
X195856000Y-104419000D02*
X195856000Y-111840658D01*
X193675000Y-114021658D02*
X193675000Y-116800000D01*
X195856000Y-111840658D02*
X193675000Y-114021658D01*
%TO.N,/SDI*%
X195675000Y-103634030D02*
X195275000Y-104034030D01*
X195275000Y-104034030D02*
X195275000Y-111600000D01*
X190834500Y-116040500D02*
X190834500Y-116203066D01*
X196186741Y-103111744D02*
X195675000Y-103623485D01*
X195275000Y-111600000D02*
X190834500Y-116040500D01*
X195675000Y-103623485D02*
X195675000Y-103634030D01*
%TO.N,/CS*%
X192275000Y-113600000D02*
X190675000Y-115200000D01*
%TO.N,Net-(U3-IO20{slash}RXD)*%
X229010000Y-95600000D02*
X228610000Y-96000000D01*
X228600000Y-96000000D02*
X224000000Y-100600000D01*
X228610000Y-96000000D02*
X228600000Y-96000000D01*
%TO.N,/DTX*%
X192192014Y-112682986D02*
X188744156Y-116130844D01*
X192215500Y-112682986D02*
X192192014Y-112682986D01*
X188744156Y-120659501D02*
X188744156Y-116130844D01*
%TO.N,Net-(C4-Pad1)*%
X222475000Y-112200000D02*
X222875000Y-111800000D01*
X222875000Y-111800000D02*
X222875000Y-108800000D01*
X213875000Y-112200000D02*
X222475000Y-112200000D01*
%TO.N,/QB*%
X226400000Y-120600000D02*
X217075000Y-120600000D01*
X226600000Y-120800000D02*
X226400000Y-120600000D01*
X226600000Y-123000000D02*
X226600000Y-120800000D01*
%TO.N,/QE*%
X217075000Y-113600000D02*
X222275000Y-113600000D01*
X222275000Y-113600000D02*
X224275000Y-111600000D01*
X214075000Y-116600000D02*
X217075000Y-113600000D01*
X224275000Y-111600000D02*
X228875000Y-111600000D01*
%TO.N,Net-(U2-VA)*%
X195865806Y-120057876D02*
X195875000Y-120067070D01*
X195875000Y-120067070D02*
X195875000Y-122600000D01*
X195875000Y-122600000D02*
X194875000Y-123600000D01*
X194875000Y-123600000D02*
X194275000Y-123600000D01*
%TO.N,Net-(Q3-B)*%
X228800000Y-114200000D02*
X226200000Y-114200000D01*
X225900000Y-114500000D02*
X217575000Y-114500000D01*
X226200000Y-114200000D02*
X225900000Y-114500000D01*
%TO.N,Net-(D1--)*%
X233600000Y-118200000D02*
X236200000Y-115600000D01*
X236200000Y-115600000D02*
X236200000Y-114800000D01*
%TO.N,Net-(C9-Pad1)*%
D17*
X237200000Y-131000000D02*
X237200000Y-129800000D01*
X237200000Y-129800000D02*
X238000000Y-129000000D01*
X238000000Y-129000000D02*
X238000000Y-115800000D01*
%TD*%
%TA.AperFunction,Conductor*%
%TO.N,Net-(Q1-E)*%
G36*
X223883106Y-121296023D02*
G01*
X223898104Y-121300427D01*
X223956855Y-121338172D01*
X223958042Y-121339541D01*
X223985518Y-121394402D01*
X223987163Y-121401960D01*
X223990000Y-121428331D01*
X223990000Y-124458170D01*
X223984975Y-124493114D01*
X223980570Y-124508112D01*
X223942827Y-124566855D01*
X223941458Y-124568042D01*
X223886597Y-124595518D01*
X223879039Y-124597163D01*
X223852668Y-124600000D01*
X220131830Y-124600000D01*
X220096889Y-124594975D01*
X220081890Y-124590570D01*
X220023144Y-124552827D01*
X220021957Y-124551458D01*
X219994477Y-124496583D01*
X219992832Y-124489021D01*
X219990000Y-124462668D01*
X219990000Y-121432829D01*
X219995023Y-121397893D01*
X219999427Y-121382895D01*
X220037172Y-121324144D01*
X220038541Y-121322957D01*
X220093420Y-121295477D01*
X220100979Y-121293833D01*
X220127332Y-121291000D01*
X223848170Y-121291000D01*
X223883106Y-121296023D01*
G37*
%TD.AperFunction*%
%TD*%
%TA.AperFunction,Conductor*%
%TO.N,Net-(Q5-C)*%
G36*
X223933039Y-116419685D02*
G01*
X223978794Y-116472489D01*
X223990000Y-116524000D01*
X223990000Y-119785000D01*
X223970315Y-119852039D01*
X223917511Y-119897794D01*
X223866000Y-119909000D01*
X220114000Y-119909000D01*
X220046961Y-119889315D01*
X220001206Y-119836511D01*
X219990000Y-119785000D01*
X219990000Y-116524000D01*
X220009685Y-116456961D01*
X220062489Y-116411206D01*
X220114000Y-116400000D01*
X223866000Y-116400000D01*
X223933039Y-116419685D01*
G37*
%TD.AperFunction*%
%TD*%
%TA.AperFunction,Conductor*%
%TO.N,Net-(Q2-B)*%
G36*
X221933039Y-107819685D02*
G01*
X221978794Y-107872489D01*
X221990000Y-107924000D01*
X221990000Y-111385000D01*
X221970315Y-111452039D01*
X221917511Y-111497794D01*
X221866000Y-111509000D01*
X218114000Y-111509000D01*
X218046961Y-111489315D01*
X218001206Y-111436511D01*
X217990000Y-111385000D01*
X217990000Y-107924000D01*
X218009685Y-107856961D01*
X218062489Y-107811206D01*
X218114000Y-107800000D01*
X221866000Y-107800000D01*
X221933039Y-107819685D01*
G37*
%TD.AperFunction*%
%TD*%
%TA.AperFunction,Conductor*%
%TO.N,/IGND*%
G36*
X212398219Y-117195483D02*
G01*
X212432793Y-117202547D01*
X212455395Y-117210654D01*
X212501484Y-117239964D01*
X212502452Y-117240939D01*
X212515222Y-117256024D01*
X218218590Y-125200000D01*
X224733170Y-125200000D01*
X224768106Y-125205023D01*
X224783104Y-125209427D01*
X224841855Y-125247172D01*
X224843042Y-125248541D01*
X224870518Y-125303402D01*
X224872163Y-125310960D01*
X224875000Y-125337331D01*
X224875000Y-126058170D01*
X224869975Y-126093114D01*
X224865570Y-126108112D01*
X224827827Y-126166855D01*
X224826458Y-126168042D01*
X224771597Y-126195518D01*
X224764039Y-126197163D01*
X224737668Y-126200000D01*
X223075000Y-126200000D01*
X205619496Y-126200000D01*
X205584555Y-126194975D01*
X205569556Y-126190570D01*
X205510825Y-126152845D01*
X205510099Y-126152008D01*
X205482332Y-126095831D01*
X205481771Y-126093114D01*
X205480523Y-126087069D01*
X205477991Y-126059370D01*
X205494734Y-125272489D01*
X205671881Y-116946524D01*
X205677646Y-116911710D01*
X205682369Y-116896806D01*
X205721299Y-116838920D01*
X205721740Y-116838553D01*
X205779531Y-116811778D01*
X205789236Y-116810070D01*
X205817995Y-116808411D01*
X212398219Y-117195483D01*
G37*
%TD.AperFunction*%
%TD*%
%TA.AperFunction,Conductor*%
%TO.N,GND*%
G36*
X248066271Y-89619685D02*
G01*
X248112026Y-89672489D01*
X248118068Y-89714515D01*
X248450000Y-90046446D01*
X248450001Y-90046446D01*
X248782186Y-89714259D01*
X248785377Y-89678601D01*
X248828239Y-89623423D01*
X248894129Y-89600178D01*
X248900767Y-89600000D01*
X249099232Y-89600000D01*
X249166271Y-89619685D01*
X249212026Y-89672489D01*
X249218068Y-89714515D01*
X249550000Y-90046446D01*
X249550001Y-90046446D01*
X249882186Y-89714259D01*
X249885377Y-89678601D01*
X249928239Y-89623423D01*
X249994129Y-89600178D01*
X250000767Y-89600000D01*
X250876000Y-89600000D01*
X250943039Y-89619685D01*
X250988794Y-89672489D01*
X251000000Y-89724000D01*
X251000000Y-90680000D01*
X252010735Y-90680000D01*
X251994940Y-90695795D01*
X251955444Y-90764204D01*
X251935000Y-90840504D01*
X251935000Y-90919496D01*
X251955444Y-90995796D01*
X251994940Y-91064205D01*
X252050795Y-91120060D01*
X252068012Y-91130000D01*
X251265138Y-91130000D01*
X251273430Y-91171690D01*
X251273430Y-91171692D01*
X251348807Y-91353671D01*
X251348814Y-91353684D01*
X251458248Y-91517462D01*
X251458251Y-91517466D01*
X251597533Y-91656748D01*
X251597537Y-91656751D01*
X251761315Y-91766185D01*
X251761328Y-91766192D01*
X251943306Y-91841569D01*
X251943318Y-91841572D01*
X252136504Y-91879999D01*
X252136508Y-91880000D01*
X252535000Y-91880000D01*
X252535000Y-91180000D01*
X253035000Y-91180000D01*
X253035000Y-91782521D01*
X253015315Y-91849560D01*
X252973005Y-91889905D01*
X252965835Y-91894044D01*
X252965826Y-91894051D01*
X252869050Y-91990827D01*
X252869044Y-91990835D01*
X252800617Y-92109354D01*
X252800615Y-92109359D01*
X252776998Y-92197497D01*
X252765190Y-92241566D01*
X252765190Y-92378434D01*
X252781997Y-92441158D01*
X252800615Y-92510640D01*
X252800617Y-92510645D01*
X252869044Y-92629164D01*
X252869048Y-92629169D01*
X252869049Y-92629171D01*
X252965829Y-92725951D01*
X252965831Y-92725952D01*
X252965835Y-92725955D01*
X253084354Y-92794382D01*
X253084359Y-92794384D01*
X253084361Y-92794385D01*
X253216566Y-92829810D01*
X253216568Y-92829810D01*
X253353432Y-92829810D01*
X253353434Y-92829810D01*
X253485639Y-92794385D01*
X253485642Y-92794383D01*
X253485645Y-92794382D01*
X253604164Y-92725955D01*
X253604163Y-92725955D01*
X253604171Y-92725951D01*
X253700951Y-92629171D01*
X253769385Y-92510639D01*
X253804810Y-92378434D01*
X253804810Y-92241566D01*
X253769385Y-92109361D01*
X253769384Y-92109359D01*
X253769382Y-92109354D01*
X253700955Y-91990835D01*
X253700952Y-91990832D01*
X253700951Y-91990829D01*
X253700948Y-91990826D01*
X253696005Y-91984384D01*
X253698268Y-91982647D01*
X253671398Y-91933438D01*
X253676382Y-91863746D01*
X253718254Y-91807813D01*
X253745112Y-91792519D01*
X253808671Y-91766192D01*
X253808684Y-91766185D01*
X253972462Y-91656751D01*
X253972466Y-91656748D01*
X254111748Y-91517466D01*
X254111751Y-91517462D01*
X254221185Y-91353684D01*
X254221192Y-91353671D01*
X254296569Y-91171692D01*
X254296569Y-91171690D01*
X254304862Y-91130000D01*
X253501988Y-91130000D01*
X253519205Y-91120060D01*
X253575060Y-91064205D01*
X253614556Y-90995796D01*
X253635000Y-90919496D01*
X253635000Y-90840504D01*
X253614556Y-90764204D01*
X253575060Y-90695795D01*
X253559265Y-90680000D01*
X256340735Y-90680000D01*
X256324940Y-90695795D01*
X256285444Y-90764204D01*
X256265000Y-90840504D01*
X256265000Y-90919496D01*
X256285444Y-90995796D01*
X256324940Y-91064205D01*
X256380795Y-91120060D01*
X256398012Y-91130000D01*
X255595138Y-91130000D01*
X255603430Y-91171690D01*
X255603430Y-91171692D01*
X255678807Y-91353671D01*
X255678814Y-91353684D01*
X255788248Y-91517462D01*
X255788251Y-91517466D01*
X255927533Y-91656748D01*
X255927537Y-91656751D01*
X256091315Y-91766185D01*
X256091328Y-91766192D01*
X256273306Y-91841569D01*
X256273318Y-91841572D01*
X256466504Y-91879999D01*
X256466508Y-91880000D01*
X256715000Y-91880000D01*
X256715000Y-91180000D01*
X257165000Y-91180000D01*
X257165000Y-99220000D01*
X256715000Y-99220000D01*
X256715000Y-98520000D01*
X256466504Y-98520000D01*
X256273318Y-98558427D01*
X256273306Y-98558430D01*
X256091328Y-98633807D01*
X256091315Y-98633814D01*
X255927537Y-98743248D01*
X255927533Y-98743251D01*
X255788251Y-98882533D01*
X255788248Y-98882537D01*
X255678814Y-99046315D01*
X255678807Y-99046328D01*
X255603430Y-99228307D01*
X255603430Y-99228309D01*
X255595138Y-99270000D01*
X256398012Y-99270000D01*
X256380795Y-99279940D01*
X256324940Y-99335795D01*
X256285444Y-99404204D01*
X256265000Y-99480504D01*
X256265000Y-99559496D01*
X256285444Y-99635796D01*
X256324940Y-99704205D01*
X256380795Y-99760060D01*
X256398012Y-99770000D01*
X255585209Y-99770000D01*
X255549975Y-99794000D01*
X255511869Y-99800000D01*
X254388131Y-99800000D01*
X254321092Y-99780315D01*
X254309505Y-99770000D01*
X253501988Y-99770000D01*
X253519205Y-99760060D01*
X253575060Y-99704205D01*
X253614556Y-99635796D01*
X253635000Y-99559496D01*
X253635000Y-99480504D01*
X253614556Y-99404204D01*
X253575060Y-99335795D01*
X253519205Y-99279940D01*
X253501988Y-99270000D01*
X254304862Y-99270000D01*
X254296569Y-99228309D01*
X254296569Y-99228307D01*
X254221192Y-99046328D01*
X254221185Y-99046315D01*
X254111751Y-98882537D01*
X254111748Y-98882533D01*
X253972466Y-98743251D01*
X253972462Y-98743248D01*
X253808684Y-98633814D01*
X253808674Y-98633809D01*
X253745111Y-98607480D01*
X253690707Y-98563638D01*
X253668643Y-98497344D01*
X253685923Y-98429645D01*
X253696518Y-98416009D01*
X253696005Y-98415616D01*
X253700945Y-98409176D01*
X253700951Y-98409171D01*
X253706562Y-98399451D01*
X253769382Y-98290645D01*
X253769384Y-98290640D01*
X253769385Y-98290639D01*
X253804810Y-98158434D01*
X253804810Y-98021566D01*
X253769385Y-97889361D01*
X253769384Y-97889359D01*
X253769382Y-97889354D01*
X253700955Y-97770835D01*
X253700949Y-97770827D01*
X253604172Y-97674050D01*
X253604164Y-97674044D01*
X253485645Y-97605617D01*
X253485640Y-97605615D01*
X253441570Y-97593806D01*
X253353434Y-97570190D01*
X253216566Y-97570190D01*
X253150463Y-97587902D01*
X253084359Y-97605615D01*
X253084354Y-97605617D01*
X252965835Y-97674044D01*
X252965827Y-97674050D01*
X252869050Y-97770827D01*
X252869044Y-97770835D01*
X252800617Y-97889354D01*
X252800615Y-97889359D01*
X252780083Y-97965985D01*
X252765190Y-98021566D01*
X252765190Y-98158434D01*
X252782166Y-98221789D01*
X252800615Y-98290640D01*
X252800617Y-98290645D01*
X252869044Y-98409164D01*
X252869048Y-98409169D01*
X252869049Y-98409171D01*
X252965829Y-98505951D01*
X252972997Y-98510089D01*
X253021214Y-98560655D01*
X253035000Y-98617478D01*
X253035000Y-99220000D01*
X252535000Y-99220000D01*
X252535000Y-98520000D01*
X252136504Y-98520000D01*
X251943318Y-98558427D01*
X251943306Y-98558430D01*
X251761328Y-98633807D01*
X251761315Y-98633814D01*
X251597537Y-98743248D01*
X251597533Y-98743251D01*
X251458251Y-98882533D01*
X251458248Y-98882537D01*
X251348814Y-99046315D01*
X251348807Y-99046328D01*
X251273430Y-99228307D01*
X251273430Y-99228309D01*
X251265138Y-99270000D01*
X252068012Y-99270000D01*
X252050795Y-99279940D01*
X251994940Y-99335795D01*
X251955444Y-99404204D01*
X251935000Y-99480504D01*
X251935000Y-99559496D01*
X251955444Y-99635796D01*
X251994940Y-99704205D01*
X252050795Y-99760060D01*
X252068012Y-99770000D01*
X251255209Y-99770000D01*
X251219975Y-99794000D01*
X251181869Y-99800000D01*
X249644293Y-99800000D01*
X249577254Y-99780315D01*
X249576434Y-99779784D01*
X249561470Y-99770000D01*
X248454658Y-99046315D01*
X246421141Y-97716707D01*
X246375803Y-97663545D01*
X246365000Y-97612923D01*
X246365000Y-93098197D01*
X246370230Y-93062566D01*
X246444516Y-92814947D01*
X246556654Y-92441153D01*
X248728116Y-92441153D01*
X248728116Y-92598846D01*
X248758877Y-92753489D01*
X248758879Y-92753497D01*
X248764677Y-92767494D01*
X248774116Y-92814947D01*
X248774116Y-97449168D01*
X248774115Y-97449194D01*
X248774115Y-97454304D01*
X248774115Y-97602928D01*
X248774115Y-97602930D01*
X248774114Y-97602930D01*
X248803110Y-97748693D01*
X248803111Y-97748696D01*
X248818222Y-97785179D01*
X248825276Y-97808432D01*
X248830262Y-97833496D01*
X248830264Y-97833501D01*
X248890602Y-97979172D01*
X248890609Y-97979185D01*
X248978210Y-98110288D01*
X248978213Y-98110292D01*
X249089707Y-98221786D01*
X249089711Y-98221789D01*
X249220814Y-98309390D01*
X249220827Y-98309397D01*
X249366498Y-98369735D01*
X249366503Y-98369737D01*
X249521153Y-98400499D01*
X249521156Y-98400500D01*
X249521158Y-98400500D01*
X249678844Y-98400500D01*
X249678845Y-98400499D01*
X249833497Y-98369737D01*
X249979179Y-98309394D01*
X250110289Y-98221789D01*
X250221789Y-98110289D01*
X250309394Y-97979179D01*
X250369737Y-97833497D01*
X250400500Y-97678842D01*
X250400500Y-97521158D01*
X250400500Y-97521155D01*
X250400499Y-97521153D01*
X250387202Y-97454304D01*
X250369737Y-97366503D01*
X250309394Y-97220821D01*
X250304012Y-97212767D01*
X250283136Y-97146090D01*
X250283116Y-97143878D01*
X250283116Y-92814947D01*
X250292555Y-92767494D01*
X250298353Y-92753497D01*
X250329116Y-92598842D01*
X250329116Y-92441158D01*
X250329116Y-92441155D01*
X250329115Y-92441153D01*
X250298354Y-92286510D01*
X250298353Y-92286503D01*
X250279740Y-92241566D01*
X250238013Y-92140827D01*
X250238006Y-92140814D01*
X250150405Y-92009711D01*
X250150402Y-92009707D01*
X250038908Y-91898213D01*
X250038904Y-91898210D01*
X249907801Y-91810609D01*
X249907788Y-91810602D01*
X249762117Y-91750264D01*
X249762105Y-91750261D01*
X249607461Y-91719500D01*
X249607458Y-91719500D01*
X249449774Y-91719500D01*
X249449771Y-91719500D01*
X249295126Y-91750261D01*
X249295114Y-91750264D01*
X249149443Y-91810602D01*
X249149430Y-91810609D01*
X249018327Y-91898210D01*
X249018323Y-91898213D01*
X248906829Y-92009707D01*
X248906826Y-92009711D01*
X248819225Y-92140814D01*
X248819218Y-92140827D01*
X248758880Y-92286498D01*
X248758877Y-92286510D01*
X248728116Y-92441153D01*
X246556654Y-92441153D01*
X246965727Y-91077577D01*
X248125975Y-91077577D01*
X248231236Y-91121178D01*
X248231240Y-91121179D01*
X248376126Y-91149999D01*
X248376129Y-91150000D01*
X248523871Y-91150000D01*
X248523873Y-91149999D01*
X248668760Y-91121179D01*
X248668775Y-91121175D01*
X248774024Y-91077578D01*
X248774024Y-91077577D01*
X249225975Y-91077577D01*
X249331236Y-91121178D01*
X249331240Y-91121179D01*
X249476126Y-91149999D01*
X249476129Y-91150000D01*
X249623871Y-91150000D01*
X249623873Y-91149999D01*
X249768760Y-91121179D01*
X249768775Y-91121175D01*
X249874024Y-91077578D01*
X249874024Y-91077577D01*
X249550001Y-90753554D01*
X249550000Y-90753554D01*
X249225975Y-91077577D01*
X248774024Y-91077577D01*
X248450001Y-90753554D01*
X248450000Y-90753554D01*
X248125975Y-91077577D01*
X246965727Y-91077577D01*
X247191162Y-90326126D01*
X247700000Y-90326126D01*
X247700000Y-90473873D01*
X247728820Y-90618759D01*
X247728822Y-90618767D01*
X247772421Y-90724024D01*
X248096446Y-90400000D01*
X248096446Y-90399999D01*
X248076556Y-90380109D01*
X248350000Y-90380109D01*
X248350000Y-90419891D01*
X248365224Y-90456645D01*
X248393355Y-90484776D01*
X248430109Y-90500000D01*
X248469891Y-90500000D01*
X248506645Y-90484776D01*
X248534776Y-90456645D01*
X248550000Y-90419891D01*
X248550000Y-90400000D01*
X248803554Y-90400000D01*
X249000000Y-90596446D01*
X249196446Y-90400000D01*
X249176555Y-90380109D01*
X249450000Y-90380109D01*
X249450000Y-90419891D01*
X249465224Y-90456645D01*
X249493355Y-90484776D01*
X249530109Y-90500000D01*
X249569891Y-90500000D01*
X249606645Y-90484776D01*
X249634776Y-90456645D01*
X249650000Y-90419891D01*
X249650000Y-90399999D01*
X249903554Y-90399999D01*
X249903554Y-90400001D01*
X250227577Y-90724024D01*
X250227578Y-90724024D01*
X250271175Y-90618775D01*
X250271179Y-90618760D01*
X250299999Y-90473873D01*
X250300000Y-90473871D01*
X250300000Y-90326128D01*
X250299999Y-90326126D01*
X250271179Y-90181240D01*
X250271178Y-90181236D01*
X250227577Y-90075975D01*
X249903554Y-90399999D01*
X249650000Y-90399999D01*
X249650000Y-90380109D01*
X249634776Y-90343355D01*
X249606645Y-90315224D01*
X249569891Y-90300000D01*
X249530109Y-90300000D01*
X249493355Y-90315224D01*
X249465224Y-90343355D01*
X249450000Y-90380109D01*
X249176555Y-90380109D01*
X249000000Y-90203554D01*
X248803554Y-90400000D01*
X248550000Y-90400000D01*
X248550000Y-90380109D01*
X248534776Y-90343355D01*
X248506645Y-90315224D01*
X248469891Y-90300000D01*
X248430109Y-90300000D01*
X248393355Y-90315224D01*
X248365224Y-90343355D01*
X248350000Y-90380109D01*
X248076556Y-90380109D01*
X247772421Y-90075974D01*
X247772420Y-90075974D01*
X247728823Y-90181228D01*
X247728820Y-90181240D01*
X247700000Y-90326126D01*
X247191162Y-90326126D01*
X247382489Y-89688368D01*
X247420607Y-89629813D01*
X247484331Y-89601161D01*
X247501259Y-89600000D01*
X247999232Y-89600000D01*
X248066271Y-89619685D01*
G37*
%TD.AperFunction*%
%TD*%
%TA.AperFunction,Conductor*%
%TO.N,GND*%
G36*
X207143039Y-94219685D02*
G01*
X207188794Y-94272489D01*
X207200000Y-94324000D01*
X207200000Y-99276000D01*
X207180315Y-99343039D01*
X207127511Y-99388794D01*
X207076000Y-99400000D01*
X200924000Y-99400000D01*
X200856961Y-99380315D01*
X200811206Y-99327511D01*
X200800000Y-99276000D01*
X200800000Y-94324000D01*
X200819685Y-94256961D01*
X200872489Y-94211206D01*
X200924000Y-94200000D01*
X207076000Y-94200000D01*
X207143039Y-94219685D01*
G37*
%TD.AperFunction*%
%TD*%
M02*
